<?xml version="1.0" standalone="no"?>
<!DOCTYPE svg PUBLIC "-//W3C//DTD SVG 20010904//EN"
 "http://www.w3.org/TR/2001/REC-SVG-20010904/DTD/svg10.dtd">
<svg version="1.0" xmlns="http://www.w3.org/2000/svg"
 width="225.000000pt" height="225.000000pt" viewBox="0 0 225.000000 225.000000"
 preserveAspectRatio="xMidYMid meet">
<metadata>
Created by potrace 1.14, written by Peter Selinger 2001-2017
</metadata>
<g transform="translate(0.000000,225.000000) scale(0.100000,-0.100000)"
fill="#000000" stroke="none">
<path d="M771 2192 c-2 -79 46 -141 181 -236 132 -92 167 -189 84 -229 -51
-24 -114 -84 -138 -131 -29 -57 -28 -161 2 -239 12 -32 23 -57 25 -55 2 2 -1
36 -7 75 -17 110 0 174 63 236 27 26 53 47 58 47 4 0 11 -32 14 -71 11 -125
81 -231 189 -282 l50 -24 -173 -6 c-128 -4 -176 -3 -181 6 -6 9 -8 8 -8 -1 0
-11 -23 -13 -117 -8 -65 3 -195 8 -290 12 -165 6 -172 5 -192 -15 -20 -20 -21
-29 -21 -346 0 -302 1 -330 21 -387 53 -158 185 -281 344 -323 82 -21 427 -21
508 0 167 43 304 175 352 336 10 35 20 65 21 67 1 2 30 -7 65 -19 49 -16 77
-20 119 -15 116 13 221 95 256 198 22 67 15 177 -14 234 -30 58 -112 129 -174
150 -61 20 -167 15 -216 -10 l-32 -17 0 41 c0 53 -24 98 -56 106 -14 4 -64 4
-110 1 -80 -5 -86 -4 -129 25 -84 56 -143 155 -152 257 -9 95 4 122 73 154 81
39 138 88 163 140 70 144 -45 299 -244 331 -39 6 -38 5 20 -23 224 -108 250
-276 58 -374 l-31 -17 -7 33 c-19 86 -60 131 -185 205 -116 67 -165 116 -178
174 l-10 43 -1 -43z m997 -1114 c83 -21 152 -113 152 -205 0 -48 -46 -128 -92
-159 -36 -25 -50 -29 -113 -29 -61 0 -77 4 -113 28 l-42 27 0 138 c0 133 1
139 24 161 22 20 91 49 124 50 7 1 34 -4 60 -11z"/>
<path d="M591 2111 c32 -43 23 -110 -24 -183 -65 -102 -77 -133 -77 -198 0
-76 17 -117 78 -189 27 -31 54 -66 61 -78 17 -34 13 -94 -10 -138 l-21 -40 22
20 c29 25 59 91 60 128 0 39 -24 93 -69 151 -76 100 -77 151 -6 297 32 67 45
105 45 136 0 50 -21 97 -49 113 -31 16 -33 12 -10 -19z"/>
<path d="M263 163 c-7 -2 -13 -10 -13 -17 0 -14 96 -109 127 -125 15 -8 182
-11 553 -11 596 0 552 -5 634 78 85 88 129 82 -626 81 -365 0 -669 -3 -675 -6z"/>
</g>
</svg>
